<mxfile host="app.diagrams.net" modified="2023-07-26T04:18:26.806Z" agent="Mozilla/5.0 (X11; Linux x86_64; rv:109.0) Gecko/20100101 Firefox/114.0" etag="4Cfm5Uce061Xm3vKp45x" version="21.6.5" type="github">
  <diagram name="第 1 页" id="-Ap52MZwl_gN1Nkvw6ww">
    <mxGraphModel dx="2074" dy="1078" grid="1" gridSize="10" guides="1" tooltips="1" connect="1" arrows="1" fold="1" page="1" pageScale="1" pageWidth="827" pageHeight="1169" math="0" shadow="0">
      <root>
        <mxCell id="0" />
        <mxCell id="1" parent="0" />
      </root>
    </mxGraphModel>
  </diagram>
</mxfile>
